<?xml version='1.0' encoding='UTF-8'?>
<svg xmlns="http://www.w3.org/2000/svg" viewBox="0 0 22 22" id="svg2" version="1.1">
  <defs id="defs3051">
    <style type="text/css" id="current-color-scheme">
      .ColorScheme-Text {
        color:#363636;
      }
      </style>
  </defs>
  <path style="color:#363636;fill:currentColor;fill-opacity:1;stroke:none" d="m 19,9 -2,-3 -2,3 4,0 m 0,4 -4,0 2,3 2,-3 M 16,6 14,6 14,3 7,3 7,6 3,6 l 0,1 4,0 0,3 7,0 0,-3 2,0 0,-1 m 0,9 -2,0 0,-3 -9,0 0,3 -2,0 0,1 2,0 0,3 9,0 0,-3 2,0 0,-1 M 13,4 13,9 8,9 8,4 13,4 m 0,9 0,5 -7,0 0,-5 7,0" class="ColorScheme-Text" id="path6"/>
</svg>