<?xml version='1.0' encoding='UTF-8'?>
<svg xmlns="http://www.w3.org/2000/svg" width="24" height="24" viewBox="0 0 24 24">
  <style type="text/css" id="current-color-scheme">.ColorScheme-Text {
        color:#363636;
      }
      .ColorScheme-Background {
        color:#eff0f1;
      }
      .ColorScheme-Highlight {
        color:#3daee9;
      }
      .ColorScheme-ButtonText {
        color:#363636;
      }
    </style>
  <g transform="translate(1,1)">
    <g id="22-22-input-keyboard-virtual-off" transform="translate(16,74.000007) translate(-16,-74)">
      <path class="ColorScheme-Text" transform="translate(0,-1030.3622)" d="m2 1038.3622v11h18v-11zm1 1h16v1h-16zm0 2h16v7h-16zm1 1v1h2v-1zm3 0v1h2v-1zm3 0v1h2v-1zm3 0v1h2v-1zm3 0v1h2v-1zm-12 2v1h2v-1zm3 0v1h2v-1zm3 0v1h2v-1zm3 0v1h2v-1zm3 0v1h2v-1zm-12 2v1h2v-1zm3 0v1h8v-1zm9 0v1h2v-1z" fill="currentColor"/>
      <rect width="24" height="24" fill="none"/>
    </g>
  </g>
</svg>